<mxfile host="app.diagrams.net" agent="Mozilla/5.0 (X11; Linux x86_64; rv:136.0) Gecko/20100101 Firefox/136.0" version="26.1.3">
  <diagram name="Page-1" id="IZyZ7xlEYgbQay3evwRT">
    <mxGraphModel dx="1434" dy="902" grid="1" gridSize="10" guides="1" tooltips="1" connect="1" arrows="1" fold="1" page="1" pageScale="1" pageWidth="850" pageHeight="1100" math="0" shadow="0">
      <root>
        <mxCell id="0" />
        <mxCell id="1" parent="0" />
        <mxCell id="gUEw2l19a9GKQYW1JDXM-43" style="edgeStyle=orthogonalEdgeStyle;rounded=0;orthogonalLoop=1;jettySize=auto;html=1;" edge="1" parent="1" source="gUEw2l19a9GKQYW1JDXM-2" target="gUEw2l19a9GKQYW1JDXM-41">
          <mxGeometry relative="1" as="geometry">
            <Array as="points">
              <mxPoint x="150" y="230" />
            </Array>
          </mxGeometry>
        </mxCell>
        <mxCell id="gUEw2l19a9GKQYW1JDXM-2" value="Hospital" style="whiteSpace=wrap;html=1;align=center;" vertex="1" parent="1">
          <mxGeometry x="100" y="160" width="100" height="40" as="geometry" />
        </mxCell>
        <mxCell id="gUEw2l19a9GKQYW1JDXM-13" style="edgeStyle=orthogonalEdgeStyle;rounded=0;orthogonalLoop=1;jettySize=auto;html=1;" edge="1" parent="1" source="gUEw2l19a9GKQYW1JDXM-5">
          <mxGeometry relative="1" as="geometry">
            <mxPoint x="150" y="160" as="targetPoint" />
          </mxGeometry>
        </mxCell>
        <mxCell id="gUEw2l19a9GKQYW1JDXM-5" value="capacidad" style="ellipse;whiteSpace=wrap;html=1;align=center;" vertex="1" parent="1">
          <mxGeometry x="200" y="110" width="100" height="40" as="geometry" />
        </mxCell>
        <mxCell id="gUEw2l19a9GKQYW1JDXM-11" style="edgeStyle=orthogonalEdgeStyle;rounded=0;orthogonalLoop=1;jettySize=auto;html=1;" edge="1" parent="1" source="gUEw2l19a9GKQYW1JDXM-6">
          <mxGeometry relative="1" as="geometry">
            <mxPoint x="150" y="160" as="targetPoint" />
          </mxGeometry>
        </mxCell>
        <mxCell id="gUEw2l19a9GKQYW1JDXM-6" value="dirección" style="ellipse;whiteSpace=wrap;html=1;align=center;" vertex="1" parent="1">
          <mxGeometry y="60" width="100" height="40" as="geometry" />
        </mxCell>
        <mxCell id="gUEw2l19a9GKQYW1JDXM-14" style="edgeStyle=orthogonalEdgeStyle;rounded=0;orthogonalLoop=1;jettySize=auto;html=1;" edge="1" parent="1" source="gUEw2l19a9GKQYW1JDXM-7">
          <mxGeometry relative="1" as="geometry">
            <mxPoint x="150" y="160" as="targetPoint" />
          </mxGeometry>
        </mxCell>
        <mxCell id="gUEw2l19a9GKQYW1JDXM-7" value="ciudad" style="ellipse;whiteSpace=wrap;html=1;align=center;" vertex="1" parent="1">
          <mxGeometry x="200" y="60" width="100" height="40" as="geometry" />
        </mxCell>
        <mxCell id="gUEw2l19a9GKQYW1JDXM-9" style="edgeStyle=orthogonalEdgeStyle;rounded=0;orthogonalLoop=1;jettySize=auto;html=1;" edge="1" parent="1" source="gUEw2l19a9GKQYW1JDXM-8" target="gUEw2l19a9GKQYW1JDXM-2">
          <mxGeometry relative="1" as="geometry" />
        </mxCell>
        <mxCell id="gUEw2l19a9GKQYW1JDXM-8" value="ID" style="ellipse;whiteSpace=wrap;html=1;align=center;fontStyle=4;" vertex="1" parent="1">
          <mxGeometry x="100" y="20" width="100" height="40" as="geometry" />
        </mxCell>
        <mxCell id="gUEw2l19a9GKQYW1JDXM-12" style="edgeStyle=orthogonalEdgeStyle;rounded=0;orthogonalLoop=1;jettySize=auto;html=1;" edge="1" parent="1" source="gUEw2l19a9GKQYW1JDXM-10">
          <mxGeometry relative="1" as="geometry">
            <mxPoint x="150" y="160" as="targetPoint" />
          </mxGeometry>
        </mxCell>
        <mxCell id="gUEw2l19a9GKQYW1JDXM-10" value="nombre" style="ellipse;whiteSpace=wrap;html=1;align=center;" vertex="1" parent="1">
          <mxGeometry y="110" width="100" height="40" as="geometry" />
        </mxCell>
        <mxCell id="gUEw2l19a9GKQYW1JDXM-110" style="edgeStyle=orthogonalEdgeStyle;rounded=0;orthogonalLoop=1;jettySize=auto;html=1;" edge="1" parent="1" source="gUEw2l19a9GKQYW1JDXM-15" target="gUEw2l19a9GKQYW1JDXM-96">
          <mxGeometry relative="1" as="geometry" />
        </mxCell>
        <mxCell id="gUEw2l19a9GKQYW1JDXM-15" value="Doctor" style="whiteSpace=wrap;html=1;align=center;" vertex="1" parent="1">
          <mxGeometry x="373" y="160" width="100" height="40" as="geometry" />
        </mxCell>
        <mxCell id="gUEw2l19a9GKQYW1JDXM-19" style="edgeStyle=orthogonalEdgeStyle;rounded=0;orthogonalLoop=1;jettySize=auto;html=1;" edge="1" parent="1" source="gUEw2l19a9GKQYW1JDXM-16" target="gUEw2l19a9GKQYW1JDXM-15">
          <mxGeometry relative="1" as="geometry" />
        </mxCell>
        <mxCell id="gUEw2l19a9GKQYW1JDXM-16" value="ID" style="ellipse;whiteSpace=wrap;html=1;align=center;fontStyle=4;" vertex="1" parent="1">
          <mxGeometry x="373" y="20" width="100" height="40" as="geometry" />
        </mxCell>
        <mxCell id="gUEw2l19a9GKQYW1JDXM-18" style="edgeStyle=orthogonalEdgeStyle;rounded=0;orthogonalLoop=1;jettySize=auto;html=1;" edge="1" parent="1" source="gUEw2l19a9GKQYW1JDXM-17" target="gUEw2l19a9GKQYW1JDXM-15">
          <mxGeometry relative="1" as="geometry" />
        </mxCell>
        <mxCell id="gUEw2l19a9GKQYW1JDXM-17" value="especialidad" style="ellipse;whiteSpace=wrap;html=1;align=center;" vertex="1" parent="1">
          <mxGeometry x="315" y="60" width="100" height="40" as="geometry" />
        </mxCell>
        <mxCell id="gUEw2l19a9GKQYW1JDXM-80" style="edgeStyle=orthogonalEdgeStyle;rounded=0;orthogonalLoop=1;jettySize=auto;html=1;" edge="1" parent="1" source="gUEw2l19a9GKQYW1JDXM-20" target="gUEw2l19a9GKQYW1JDXM-79">
          <mxGeometry relative="1" as="geometry" />
        </mxCell>
        <mxCell id="gUEw2l19a9GKQYW1JDXM-20" value="Paciente" style="whiteSpace=wrap;html=1;align=center;" vertex="1" parent="1">
          <mxGeometry x="650" y="160" width="100" height="40" as="geometry" />
        </mxCell>
        <mxCell id="gUEw2l19a9GKQYW1JDXM-27" style="edgeStyle=orthogonalEdgeStyle;rounded=0;orthogonalLoop=1;jettySize=auto;html=1;" edge="1" parent="1" source="gUEw2l19a9GKQYW1JDXM-21" target="gUEw2l19a9GKQYW1JDXM-20">
          <mxGeometry relative="1" as="geometry" />
        </mxCell>
        <mxCell id="gUEw2l19a9GKQYW1JDXM-21" value="DNI" style="ellipse;whiteSpace=wrap;html=1;align=center;fontStyle=4;" vertex="1" parent="1">
          <mxGeometry x="650" y="20" width="100" height="40" as="geometry" />
        </mxCell>
        <mxCell id="gUEw2l19a9GKQYW1JDXM-28" style="edgeStyle=orthogonalEdgeStyle;rounded=0;orthogonalLoop=1;jettySize=auto;html=1;" edge="1" parent="1" source="gUEw2l19a9GKQYW1JDXM-23">
          <mxGeometry relative="1" as="geometry">
            <mxPoint x="700" y="160" as="targetPoint" />
          </mxGeometry>
        </mxCell>
        <mxCell id="gUEw2l19a9GKQYW1JDXM-23" value="nombre" style="ellipse;whiteSpace=wrap;html=1;align=center;" vertex="1" parent="1">
          <mxGeometry x="550" y="60" width="100" height="40" as="geometry" />
        </mxCell>
        <mxCell id="gUEw2l19a9GKQYW1JDXM-30" style="edgeStyle=orthogonalEdgeStyle;rounded=0;orthogonalLoop=1;jettySize=auto;html=1;" edge="1" parent="1" source="gUEw2l19a9GKQYW1JDXM-24">
          <mxGeometry relative="1" as="geometry">
            <mxPoint x="700" y="160" as="targetPoint" />
          </mxGeometry>
        </mxCell>
        <mxCell id="gUEw2l19a9GKQYW1JDXM-24" value="teléfono" style="ellipse;whiteSpace=wrap;html=1;align=center;" vertex="1" parent="1">
          <mxGeometry x="550" y="110" width="100" height="40" as="geometry" />
        </mxCell>
        <mxCell id="gUEw2l19a9GKQYW1JDXM-32" style="edgeStyle=orthogonalEdgeStyle;rounded=0;orthogonalLoop=1;jettySize=auto;html=1;" edge="1" parent="1" source="gUEw2l19a9GKQYW1JDXM-25">
          <mxGeometry relative="1" as="geometry">
            <mxPoint x="700" y="160" as="targetPoint" />
          </mxGeometry>
        </mxCell>
        <mxCell id="gUEw2l19a9GKQYW1JDXM-25" value="email" style="ellipse;whiteSpace=wrap;html=1;align=center;" vertex="1" parent="1">
          <mxGeometry x="750" y="60" width="100" height="40" as="geometry" />
        </mxCell>
        <mxCell id="gUEw2l19a9GKQYW1JDXM-31" style="edgeStyle=orthogonalEdgeStyle;rounded=0;orthogonalLoop=1;jettySize=auto;html=1;" edge="1" parent="1" source="gUEw2l19a9GKQYW1JDXM-26">
          <mxGeometry relative="1" as="geometry">
            <mxPoint x="700" y="160" as="targetPoint" />
          </mxGeometry>
        </mxCell>
        <mxCell id="gUEw2l19a9GKQYW1JDXM-26" value="nacimiento" style="ellipse;whiteSpace=wrap;html=1;align=center;" vertex="1" parent="1">
          <mxGeometry x="750" y="110" width="100" height="40" as="geometry" />
        </mxCell>
        <mxCell id="gUEw2l19a9GKQYW1JDXM-36" value="1:N" style="text;html=1;align=center;verticalAlign=middle;resizable=0;points=[];autosize=1;strokeColor=none;fillColor=none;" vertex="1" parent="1">
          <mxGeometry x="660" y="200" width="40" height="30" as="geometry" />
        </mxCell>
        <mxCell id="gUEw2l19a9GKQYW1JDXM-37" value="1:N" style="text;html=1;align=center;verticalAlign=middle;resizable=0;points=[];autosize=1;strokeColor=none;fillColor=none;" vertex="1" parent="1">
          <mxGeometry x="425" y="200" width="40" height="30" as="geometry" />
        </mxCell>
        <mxCell id="gUEw2l19a9GKQYW1JDXM-44" style="edgeStyle=orthogonalEdgeStyle;rounded=0;orthogonalLoop=1;jettySize=auto;html=1;" edge="1" parent="1" source="gUEw2l19a9GKQYW1JDXM-41" target="gUEw2l19a9GKQYW1JDXM-15">
          <mxGeometry relative="1" as="geometry">
            <Array as="points">
              <mxPoint x="290" y="180" />
            </Array>
          </mxGeometry>
        </mxCell>
        <mxCell id="gUEw2l19a9GKQYW1JDXM-41" value="Trabajan" style="shape=rhombus;perimeter=rhombusPerimeter;whiteSpace=wrap;html=1;align=center;" vertex="1" parent="1">
          <mxGeometry x="230" y="200" width="120" height="60" as="geometry" />
        </mxCell>
        <mxCell id="gUEw2l19a9GKQYW1JDXM-45" value="1:N" style="text;html=1;align=center;verticalAlign=middle;resizable=0;points=[];autosize=1;strokeColor=none;fillColor=none;" vertex="1" parent="1">
          <mxGeometry x="150" y="200" width="40" height="30" as="geometry" />
        </mxCell>
        <mxCell id="gUEw2l19a9GKQYW1JDXM-46" value="1:N" style="text;html=1;align=center;verticalAlign=middle;resizable=0;points=[];autosize=1;strokeColor=none;fillColor=none;" vertex="1" parent="1">
          <mxGeometry x="333" y="150" width="40" height="30" as="geometry" />
        </mxCell>
        <mxCell id="gUEw2l19a9GKQYW1JDXM-105" style="edgeStyle=orthogonalEdgeStyle;rounded=0;orthogonalLoop=1;jettySize=auto;html=1;" edge="1" parent="1" source="gUEw2l19a9GKQYW1JDXM-47" target="gUEw2l19a9GKQYW1JDXM-62">
          <mxGeometry relative="1" as="geometry">
            <Array as="points">
              <mxPoint x="300" y="410" />
              <mxPoint x="423" y="410" />
            </Array>
          </mxGeometry>
        </mxCell>
        <mxCell id="gUEw2l19a9GKQYW1JDXM-47" value="fecha" style="ellipse;whiteSpace=wrap;html=1;align=center;" vertex="1" parent="1">
          <mxGeometry x="250" y="419.99999999999994" width="100" height="40" as="geometry" />
        </mxCell>
        <mxCell id="gUEw2l19a9GKQYW1JDXM-107" style="edgeStyle=orthogonalEdgeStyle;rounded=0;orthogonalLoop=1;jettySize=auto;html=1;" edge="1" parent="1" source="gUEw2l19a9GKQYW1JDXM-51" target="gUEw2l19a9GKQYW1JDXM-62">
          <mxGeometry relative="1" as="geometry">
            <Array as="points">
              <mxPoint x="485" y="410" />
              <mxPoint x="423" y="410" />
            </Array>
          </mxGeometry>
        </mxCell>
        <mxCell id="gUEw2l19a9GKQYW1JDXM-51" value="hora" style="ellipse;whiteSpace=wrap;html=1;align=center;" vertex="1" parent="1">
          <mxGeometry x="435" y="469.99999999999994" width="100" height="40" as="geometry" />
        </mxCell>
        <mxCell id="gUEw2l19a9GKQYW1JDXM-108" style="edgeStyle=orthogonalEdgeStyle;rounded=0;orthogonalLoop=1;jettySize=auto;html=1;" edge="1" parent="1" source="gUEw2l19a9GKQYW1JDXM-53" target="gUEw2l19a9GKQYW1JDXM-62">
          <mxGeometry relative="1" as="geometry">
            <Array as="points">
              <mxPoint x="360" y="410" />
              <mxPoint x="423" y="410" />
            </Array>
          </mxGeometry>
        </mxCell>
        <mxCell id="gUEw2l19a9GKQYW1JDXM-53" value="estado" style="ellipse;whiteSpace=wrap;html=1;align=center;" vertex="1" parent="1">
          <mxGeometry x="310" y="469.99999999999994" width="100" height="40" as="geometry" />
        </mxCell>
        <mxCell id="gUEw2l19a9GKQYW1JDXM-104" style="edgeStyle=orthogonalEdgeStyle;rounded=0;orthogonalLoop=1;jettySize=auto;html=1;" edge="1" parent="1" source="gUEw2l19a9GKQYW1JDXM-55" target="gUEw2l19a9GKQYW1JDXM-62">
          <mxGeometry relative="1" as="geometry" />
        </mxCell>
        <mxCell id="gUEw2l19a9GKQYW1JDXM-55" value="ID" style="ellipse;whiteSpace=wrap;html=1;align=center;fontStyle=4;" vertex="1" parent="1">
          <mxGeometry x="373" y="419.99999999999994" width="100" height="40" as="geometry" />
        </mxCell>
        <mxCell id="gUEw2l19a9GKQYW1JDXM-106" style="edgeStyle=orthogonalEdgeStyle;rounded=0;orthogonalLoop=1;jettySize=auto;html=1;" edge="1" parent="1" source="gUEw2l19a9GKQYW1JDXM-56" target="gUEw2l19a9GKQYW1JDXM-62">
          <mxGeometry relative="1" as="geometry">
            <Array as="points">
              <mxPoint x="550" y="410" />
              <mxPoint x="423" y="410" />
            </Array>
          </mxGeometry>
        </mxCell>
        <mxCell id="gUEw2l19a9GKQYW1JDXM-56" value="importe" style="ellipse;whiteSpace=wrap;html=1;align=center;" vertex="1" parent="1">
          <mxGeometry x="500" y="419.99999999999994" width="100" height="40" as="geometry" />
        </mxCell>
        <mxCell id="gUEw2l19a9GKQYW1JDXM-87" style="edgeStyle=orthogonalEdgeStyle;rounded=0;orthogonalLoop=1;jettySize=auto;html=1;entryX=1;entryY=0.5;entryDx=0;entryDy=0;" edge="1" parent="1" source="gUEw2l19a9GKQYW1JDXM-62" target="gUEw2l19a9GKQYW1JDXM-86">
          <mxGeometry relative="1" as="geometry" />
        </mxCell>
        <mxCell id="gUEw2l19a9GKQYW1JDXM-62" value="Cita" style="whiteSpace=wrap;html=1;align=center;" vertex="1" parent="1">
          <mxGeometry x="373" y="339.99999999999994" width="100" height="40" as="geometry" />
        </mxCell>
        <mxCell id="gUEw2l19a9GKQYW1JDXM-68" style="edgeStyle=orthogonalEdgeStyle;rounded=0;orthogonalLoop=1;jettySize=auto;html=1;exitX=0.5;exitY=1;exitDx=0;exitDy=0;" edge="1" parent="1" source="gUEw2l19a9GKQYW1JDXM-53" target="gUEw2l19a9GKQYW1JDXM-53">
          <mxGeometry relative="1" as="geometry" />
        </mxCell>
        <mxCell id="gUEw2l19a9GKQYW1JDXM-73" value="Trataniento" style="whiteSpace=wrap;html=1;align=center;" vertex="1" parent="1">
          <mxGeometry x="80" y="340" width="100" height="40" as="geometry" />
        </mxCell>
        <mxCell id="gUEw2l19a9GKQYW1JDXM-77" style="edgeStyle=orthogonalEdgeStyle;rounded=0;orthogonalLoop=1;jettySize=auto;html=1;" edge="1" parent="1" source="gUEw2l19a9GKQYW1JDXM-74" target="gUEw2l19a9GKQYW1JDXM-73">
          <mxGeometry relative="1" as="geometry" />
        </mxCell>
        <mxCell id="gUEw2l19a9GKQYW1JDXM-74" value="descripción" style="ellipse;whiteSpace=wrap;html=1;align=center;" vertex="1" parent="1">
          <mxGeometry x="30" y="420" width="100" height="40" as="geometry" />
        </mxCell>
        <mxCell id="gUEw2l19a9GKQYW1JDXM-78" style="edgeStyle=orthogonalEdgeStyle;rounded=0;orthogonalLoop=1;jettySize=auto;html=1;" edge="1" parent="1" source="gUEw2l19a9GKQYW1JDXM-75" target="gUEw2l19a9GKQYW1JDXM-73">
          <mxGeometry relative="1" as="geometry" />
        </mxCell>
        <mxCell id="gUEw2l19a9GKQYW1JDXM-75" value="precio" style="ellipse;whiteSpace=wrap;html=1;align=center;" vertex="1" parent="1">
          <mxGeometry x="80" y="280" width="100" height="40" as="geometry" />
        </mxCell>
        <mxCell id="gUEw2l19a9GKQYW1JDXM-94" style="edgeStyle=orthogonalEdgeStyle;rounded=0;orthogonalLoop=1;jettySize=auto;html=1;" edge="1" parent="1" source="gUEw2l19a9GKQYW1JDXM-79" target="gUEw2l19a9GKQYW1JDXM-62">
          <mxGeometry relative="1" as="geometry">
            <Array as="points">
              <mxPoint x="700" y="360" />
            </Array>
          </mxGeometry>
        </mxCell>
        <mxCell id="gUEw2l19a9GKQYW1JDXM-79" value="Pide" style="shape=rhombus;perimeter=rhombusPerimeter;whiteSpace=wrap;html=1;align=center;" vertex="1" parent="1">
          <mxGeometry x="640" y="260" width="120" height="60" as="geometry" />
        </mxCell>
        <mxCell id="gUEw2l19a9GKQYW1JDXM-92" style="edgeStyle=orthogonalEdgeStyle;rounded=0;orthogonalLoop=1;jettySize=auto;html=1;" edge="1" parent="1" source="gUEw2l19a9GKQYW1JDXM-86" target="gUEw2l19a9GKQYW1JDXM-73">
          <mxGeometry relative="1" as="geometry" />
        </mxCell>
        <mxCell id="gUEw2l19a9GKQYW1JDXM-86" value="Se usa" style="shape=rhombus;perimeter=rhombusPerimeter;whiteSpace=wrap;html=1;align=center;" vertex="1" parent="1">
          <mxGeometry x="225" y="330" width="120" height="60" as="geometry" />
        </mxCell>
        <mxCell id="gUEw2l19a9GKQYW1JDXM-89" value="1:N" style="text;html=1;align=center;verticalAlign=middle;resizable=0;points=[];autosize=1;strokeColor=none;fillColor=none;" vertex="1" parent="1">
          <mxGeometry x="333" y="330" width="40" height="30" as="geometry" />
        </mxCell>
        <mxCell id="gUEw2l19a9GKQYW1JDXM-90" value="1:N" style="text;html=1;align=center;verticalAlign=middle;resizable=0;points=[];autosize=1;strokeColor=none;fillColor=none;" vertex="1" parent="1">
          <mxGeometry x="193" y="330" width="40" height="30" as="geometry" />
        </mxCell>
        <mxCell id="gUEw2l19a9GKQYW1JDXM-102" style="edgeStyle=orthogonalEdgeStyle;rounded=0;orthogonalLoop=1;jettySize=auto;html=1;" edge="1" parent="1" source="gUEw2l19a9GKQYW1JDXM-96" target="gUEw2l19a9GKQYW1JDXM-62">
          <mxGeometry relative="1" as="geometry" />
        </mxCell>
        <mxCell id="gUEw2l19a9GKQYW1JDXM-96" value="tiene" style="shape=rhombus;perimeter=rhombusPerimeter;whiteSpace=wrap;html=1;align=center;" vertex="1" parent="1">
          <mxGeometry x="363" y="245" width="120" height="60" as="geometry" />
        </mxCell>
        <mxCell id="gUEw2l19a9GKQYW1JDXM-100" value="1:N" style="text;html=1;align=center;verticalAlign=middle;resizable=0;points=[];autosize=1;strokeColor=none;fillColor=none;" vertex="1" parent="1">
          <mxGeometry x="425" y="310" width="40" height="30" as="geometry" />
        </mxCell>
        <mxCell id="gUEw2l19a9GKQYW1JDXM-112" value="1:N" style="text;html=1;align=center;verticalAlign=middle;resizable=0;points=[];autosize=1;strokeColor=none;fillColor=none;" vertex="1" parent="1">
          <mxGeometry x="473" y="330" width="40" height="30" as="geometry" />
        </mxCell>
        <mxCell id="gUEw2l19a9GKQYW1JDXM-113" value="Hospital" style="shape=table;startSize=30;container=1;collapsible=1;childLayout=tableLayout;fixedRows=1;rowLines=0;fontStyle=1;align=center;resizeLast=1;html=1;" vertex="1" parent="1">
          <mxGeometry x="40" y="870" width="180" height="180" as="geometry" />
        </mxCell>
        <mxCell id="gUEw2l19a9GKQYW1JDXM-114" value="" style="shape=tableRow;horizontal=0;startSize=0;swimlaneHead=0;swimlaneBody=0;fillColor=none;collapsible=0;dropTarget=0;points=[[0,0.5],[1,0.5]];portConstraint=eastwest;top=0;left=0;right=0;bottom=1;" vertex="1" parent="gUEw2l19a9GKQYW1JDXM-113">
          <mxGeometry y="30" width="180" height="30" as="geometry" />
        </mxCell>
        <mxCell id="gUEw2l19a9GKQYW1JDXM-115" value="PK" style="shape=partialRectangle;connectable=0;fillColor=none;top=0;left=0;bottom=0;right=0;fontStyle=1;overflow=hidden;whiteSpace=wrap;html=1;" vertex="1" parent="gUEw2l19a9GKQYW1JDXM-114">
          <mxGeometry width="30" height="30" as="geometry">
            <mxRectangle width="30" height="30" as="alternateBounds" />
          </mxGeometry>
        </mxCell>
        <mxCell id="gUEw2l19a9GKQYW1JDXM-116" value="hospital_ID" style="shape=partialRectangle;connectable=0;fillColor=none;top=0;left=0;bottom=0;right=0;align=left;spacingLeft=6;fontStyle=5;overflow=hidden;whiteSpace=wrap;html=1;" vertex="1" parent="gUEw2l19a9GKQYW1JDXM-114">
          <mxGeometry x="30" width="150" height="30" as="geometry">
            <mxRectangle width="150" height="30" as="alternateBounds" />
          </mxGeometry>
        </mxCell>
        <mxCell id="gUEw2l19a9GKQYW1JDXM-117" value="" style="shape=tableRow;horizontal=0;startSize=0;swimlaneHead=0;swimlaneBody=0;fillColor=none;collapsible=0;dropTarget=0;points=[[0,0.5],[1,0.5]];portConstraint=eastwest;top=0;left=0;right=0;bottom=0;" vertex="1" parent="gUEw2l19a9GKQYW1JDXM-113">
          <mxGeometry y="60" width="180" height="30" as="geometry" />
        </mxCell>
        <mxCell id="gUEw2l19a9GKQYW1JDXM-118" value="" style="shape=partialRectangle;connectable=0;fillColor=none;top=0;left=0;bottom=0;right=0;editable=1;overflow=hidden;whiteSpace=wrap;html=1;" vertex="1" parent="gUEw2l19a9GKQYW1JDXM-117">
          <mxGeometry width="30" height="30" as="geometry">
            <mxRectangle width="30" height="30" as="alternateBounds" />
          </mxGeometry>
        </mxCell>
        <mxCell id="gUEw2l19a9GKQYW1JDXM-119" value="nombre" style="shape=partialRectangle;connectable=0;fillColor=none;top=0;left=0;bottom=0;right=0;align=left;spacingLeft=6;overflow=hidden;whiteSpace=wrap;html=1;" vertex="1" parent="gUEw2l19a9GKQYW1JDXM-117">
          <mxGeometry x="30" width="150" height="30" as="geometry">
            <mxRectangle width="150" height="30" as="alternateBounds" />
          </mxGeometry>
        </mxCell>
        <mxCell id="gUEw2l19a9GKQYW1JDXM-120" value="" style="shape=tableRow;horizontal=0;startSize=0;swimlaneHead=0;swimlaneBody=0;fillColor=none;collapsible=0;dropTarget=0;points=[[0,0.5],[1,0.5]];portConstraint=eastwest;top=0;left=0;right=0;bottom=0;" vertex="1" parent="gUEw2l19a9GKQYW1JDXM-113">
          <mxGeometry y="90" width="180" height="30" as="geometry" />
        </mxCell>
        <mxCell id="gUEw2l19a9GKQYW1JDXM-121" value="" style="shape=partialRectangle;connectable=0;fillColor=none;top=0;left=0;bottom=0;right=0;editable=1;overflow=hidden;whiteSpace=wrap;html=1;" vertex="1" parent="gUEw2l19a9GKQYW1JDXM-120">
          <mxGeometry width="30" height="30" as="geometry">
            <mxRectangle width="30" height="30" as="alternateBounds" />
          </mxGeometry>
        </mxCell>
        <mxCell id="gUEw2l19a9GKQYW1JDXM-122" value="ciudad" style="shape=partialRectangle;connectable=0;fillColor=none;top=0;left=0;bottom=0;right=0;align=left;spacingLeft=6;overflow=hidden;whiteSpace=wrap;html=1;" vertex="1" parent="gUEw2l19a9GKQYW1JDXM-120">
          <mxGeometry x="30" width="150" height="30" as="geometry">
            <mxRectangle width="150" height="30" as="alternateBounds" />
          </mxGeometry>
        </mxCell>
        <mxCell id="gUEw2l19a9GKQYW1JDXM-123" value="" style="shape=tableRow;horizontal=0;startSize=0;swimlaneHead=0;swimlaneBody=0;fillColor=none;collapsible=0;dropTarget=0;points=[[0,0.5],[1,0.5]];portConstraint=eastwest;top=0;left=0;right=0;bottom=0;" vertex="1" parent="gUEw2l19a9GKQYW1JDXM-113">
          <mxGeometry y="120" width="180" height="30" as="geometry" />
        </mxCell>
        <mxCell id="gUEw2l19a9GKQYW1JDXM-124" value="" style="shape=partialRectangle;connectable=0;fillColor=none;top=0;left=0;bottom=0;right=0;editable=1;overflow=hidden;whiteSpace=wrap;html=1;" vertex="1" parent="gUEw2l19a9GKQYW1JDXM-123">
          <mxGeometry width="30" height="30" as="geometry">
            <mxRectangle width="30" height="30" as="alternateBounds" />
          </mxGeometry>
        </mxCell>
        <mxCell id="gUEw2l19a9GKQYW1JDXM-125" value="dirección" style="shape=partialRectangle;connectable=0;fillColor=none;top=0;left=0;bottom=0;right=0;align=left;spacingLeft=6;overflow=hidden;whiteSpace=wrap;html=1;" vertex="1" parent="gUEw2l19a9GKQYW1JDXM-123">
          <mxGeometry x="30" width="150" height="30" as="geometry">
            <mxRectangle width="150" height="30" as="alternateBounds" />
          </mxGeometry>
        </mxCell>
        <mxCell id="gUEw2l19a9GKQYW1JDXM-183" style="shape=tableRow;horizontal=0;startSize=0;swimlaneHead=0;swimlaneBody=0;fillColor=none;collapsible=0;dropTarget=0;points=[[0,0.5],[1,0.5]];portConstraint=eastwest;top=0;left=0;right=0;bottom=0;" vertex="1" parent="gUEw2l19a9GKQYW1JDXM-113">
          <mxGeometry y="150" width="180" height="30" as="geometry" />
        </mxCell>
        <mxCell id="gUEw2l19a9GKQYW1JDXM-184" style="shape=partialRectangle;connectable=0;fillColor=none;top=0;left=0;bottom=0;right=0;editable=1;overflow=hidden;whiteSpace=wrap;html=1;" vertex="1" parent="gUEw2l19a9GKQYW1JDXM-183">
          <mxGeometry width="30" height="30" as="geometry">
            <mxRectangle width="30" height="30" as="alternateBounds" />
          </mxGeometry>
        </mxCell>
        <mxCell id="gUEw2l19a9GKQYW1JDXM-185" value="capacidad" style="shape=partialRectangle;connectable=0;fillColor=none;top=0;left=0;bottom=0;right=0;align=left;spacingLeft=6;overflow=hidden;whiteSpace=wrap;html=1;" vertex="1" parent="gUEw2l19a9GKQYW1JDXM-183">
          <mxGeometry x="30" width="150" height="30" as="geometry">
            <mxRectangle width="150" height="30" as="alternateBounds" />
          </mxGeometry>
        </mxCell>
        <mxCell id="gUEw2l19a9GKQYW1JDXM-127" value="Doctor" style="shape=table;startSize=30;container=1;collapsible=1;childLayout=tableLayout;fixedRows=1;rowLines=0;fontStyle=1;align=center;resizeLast=1;html=1;" vertex="1" parent="1">
          <mxGeometry x="335" y="870" width="180" height="150" as="geometry" />
        </mxCell>
        <mxCell id="gUEw2l19a9GKQYW1JDXM-128" value="" style="shape=tableRow;horizontal=0;startSize=0;swimlaneHead=0;swimlaneBody=0;fillColor=none;collapsible=0;dropTarget=0;points=[[0,0.5],[1,0.5]];portConstraint=eastwest;top=0;left=0;right=0;bottom=1;" vertex="1" parent="gUEw2l19a9GKQYW1JDXM-127">
          <mxGeometry y="30" width="180" height="30" as="geometry" />
        </mxCell>
        <mxCell id="gUEw2l19a9GKQYW1JDXM-129" value="PK" style="shape=partialRectangle;connectable=0;fillColor=none;top=0;left=0;bottom=0;right=0;fontStyle=1;overflow=hidden;whiteSpace=wrap;html=1;" vertex="1" parent="gUEw2l19a9GKQYW1JDXM-128">
          <mxGeometry width="30" height="30" as="geometry">
            <mxRectangle width="30" height="30" as="alternateBounds" />
          </mxGeometry>
        </mxCell>
        <mxCell id="gUEw2l19a9GKQYW1JDXM-130" value="doctor_ID" style="shape=partialRectangle;connectable=0;fillColor=none;top=0;left=0;bottom=0;right=0;align=left;spacingLeft=6;fontStyle=5;overflow=hidden;whiteSpace=wrap;html=1;" vertex="1" parent="gUEw2l19a9GKQYW1JDXM-128">
          <mxGeometry x="30" width="150" height="30" as="geometry">
            <mxRectangle width="150" height="30" as="alternateBounds" />
          </mxGeometry>
        </mxCell>
        <mxCell id="gUEw2l19a9GKQYW1JDXM-131" value="" style="shape=tableRow;horizontal=0;startSize=0;swimlaneHead=0;swimlaneBody=0;fillColor=none;collapsible=0;dropTarget=0;points=[[0,0.5],[1,0.5]];portConstraint=eastwest;top=0;left=0;right=0;bottom=0;" vertex="1" parent="gUEw2l19a9GKQYW1JDXM-127">
          <mxGeometry y="60" width="180" height="30" as="geometry" />
        </mxCell>
        <mxCell id="gUEw2l19a9GKQYW1JDXM-132" value="" style="shape=partialRectangle;connectable=0;fillColor=none;top=0;left=0;bottom=0;right=0;editable=1;overflow=hidden;whiteSpace=wrap;html=1;" vertex="1" parent="gUEw2l19a9GKQYW1JDXM-131">
          <mxGeometry width="30" height="30" as="geometry">
            <mxRectangle width="30" height="30" as="alternateBounds" />
          </mxGeometry>
        </mxCell>
        <mxCell id="gUEw2l19a9GKQYW1JDXM-133" value="nombre" style="shape=partialRectangle;connectable=0;fillColor=none;top=0;left=0;bottom=0;right=0;align=left;spacingLeft=6;overflow=hidden;whiteSpace=wrap;html=1;" vertex="1" parent="gUEw2l19a9GKQYW1JDXM-131">
          <mxGeometry x="30" width="150" height="30" as="geometry">
            <mxRectangle width="150" height="30" as="alternateBounds" />
          </mxGeometry>
        </mxCell>
        <mxCell id="gUEw2l19a9GKQYW1JDXM-134" value="" style="shape=tableRow;horizontal=0;startSize=0;swimlaneHead=0;swimlaneBody=0;fillColor=none;collapsible=0;dropTarget=0;points=[[0,0.5],[1,0.5]];portConstraint=eastwest;top=0;left=0;right=0;bottom=0;" vertex="1" parent="gUEw2l19a9GKQYW1JDXM-127">
          <mxGeometry y="90" width="180" height="30" as="geometry" />
        </mxCell>
        <mxCell id="gUEw2l19a9GKQYW1JDXM-135" value="" style="shape=partialRectangle;connectable=0;fillColor=none;top=0;left=0;bottom=0;right=0;editable=1;overflow=hidden;whiteSpace=wrap;html=1;" vertex="1" parent="gUEw2l19a9GKQYW1JDXM-134">
          <mxGeometry width="30" height="30" as="geometry">
            <mxRectangle width="30" height="30" as="alternateBounds" />
          </mxGeometry>
        </mxCell>
        <mxCell id="gUEw2l19a9GKQYW1JDXM-136" value="especialidad" style="shape=partialRectangle;connectable=0;fillColor=none;top=0;left=0;bottom=0;right=0;align=left;spacingLeft=6;overflow=hidden;whiteSpace=wrap;html=1;" vertex="1" parent="gUEw2l19a9GKQYW1JDXM-134">
          <mxGeometry x="30" width="150" height="30" as="geometry">
            <mxRectangle width="150" height="30" as="alternateBounds" />
          </mxGeometry>
        </mxCell>
        <mxCell id="gUEw2l19a9GKQYW1JDXM-137" value="" style="shape=tableRow;horizontal=0;startSize=0;swimlaneHead=0;swimlaneBody=0;fillColor=none;collapsible=0;dropTarget=0;points=[[0,0.5],[1,0.5]];portConstraint=eastwest;top=0;left=0;right=0;bottom=0;" vertex="1" parent="gUEw2l19a9GKQYW1JDXM-127">
          <mxGeometry y="120" width="180" height="30" as="geometry" />
        </mxCell>
        <mxCell id="gUEw2l19a9GKQYW1JDXM-138" value="FK" style="shape=partialRectangle;connectable=0;fillColor=none;top=0;left=0;bottom=0;right=0;editable=1;overflow=hidden;whiteSpace=wrap;html=1;" vertex="1" parent="gUEw2l19a9GKQYW1JDXM-137">
          <mxGeometry width="30" height="30" as="geometry">
            <mxRectangle width="30" height="30" as="alternateBounds" />
          </mxGeometry>
        </mxCell>
        <mxCell id="gUEw2l19a9GKQYW1JDXM-139" value="hospital_ID" style="shape=partialRectangle;connectable=0;fillColor=none;top=0;left=0;bottom=0;right=0;align=left;spacingLeft=6;overflow=hidden;whiteSpace=wrap;html=1;" vertex="1" parent="gUEw2l19a9GKQYW1JDXM-137">
          <mxGeometry x="30" width="150" height="30" as="geometry">
            <mxRectangle width="150" height="30" as="alternateBounds" />
          </mxGeometry>
        </mxCell>
        <mxCell id="gUEw2l19a9GKQYW1JDXM-142" style="edgeStyle=orthogonalEdgeStyle;rounded=0;orthogonalLoop=1;jettySize=auto;html=1;" edge="1" parent="1" source="gUEw2l19a9GKQYW1JDXM-141" target="gUEw2l19a9GKQYW1JDXM-15">
          <mxGeometry relative="1" as="geometry" />
        </mxCell>
        <mxCell id="gUEw2l19a9GKQYW1JDXM-141" value="nombre" style="ellipse;whiteSpace=wrap;html=1;align=center;" vertex="1" parent="1">
          <mxGeometry x="435" y="60" width="100" height="40" as="geometry" />
        </mxCell>
        <mxCell id="gUEw2l19a9GKQYW1JDXM-144" value="Paciente" style="shape=table;startSize=30;container=1;collapsible=1;childLayout=tableLayout;fixedRows=1;rowLines=0;fontStyle=1;align=center;resizeLast=1;html=1;" vertex="1" parent="1">
          <mxGeometry x="630" y="560" width="180" height="180" as="geometry" />
        </mxCell>
        <mxCell id="gUEw2l19a9GKQYW1JDXM-145" value="" style="shape=tableRow;horizontal=0;startSize=0;swimlaneHead=0;swimlaneBody=0;fillColor=none;collapsible=0;dropTarget=0;points=[[0,0.5],[1,0.5]];portConstraint=eastwest;top=0;left=0;right=0;bottom=1;" vertex="1" parent="gUEw2l19a9GKQYW1JDXM-144">
          <mxGeometry y="30" width="180" height="30" as="geometry" />
        </mxCell>
        <mxCell id="gUEw2l19a9GKQYW1JDXM-146" value="PK" style="shape=partialRectangle;connectable=0;fillColor=none;top=0;left=0;bottom=0;right=0;fontStyle=1;overflow=hidden;whiteSpace=wrap;html=1;" vertex="1" parent="gUEw2l19a9GKQYW1JDXM-145">
          <mxGeometry width="30" height="30" as="geometry">
            <mxRectangle width="30" height="30" as="alternateBounds" />
          </mxGeometry>
        </mxCell>
        <mxCell id="gUEw2l19a9GKQYW1JDXM-147" value="paciente_DNI" style="shape=partialRectangle;connectable=0;fillColor=none;top=0;left=0;bottom=0;right=0;align=left;spacingLeft=6;fontStyle=5;overflow=hidden;whiteSpace=wrap;html=1;" vertex="1" parent="gUEw2l19a9GKQYW1JDXM-145">
          <mxGeometry x="30" width="150" height="30" as="geometry">
            <mxRectangle width="150" height="30" as="alternateBounds" />
          </mxGeometry>
        </mxCell>
        <mxCell id="gUEw2l19a9GKQYW1JDXM-148" value="" style="shape=tableRow;horizontal=0;startSize=0;swimlaneHead=0;swimlaneBody=0;fillColor=none;collapsible=0;dropTarget=0;points=[[0,0.5],[1,0.5]];portConstraint=eastwest;top=0;left=0;right=0;bottom=0;" vertex="1" parent="gUEw2l19a9GKQYW1JDXM-144">
          <mxGeometry y="60" width="180" height="30" as="geometry" />
        </mxCell>
        <mxCell id="gUEw2l19a9GKQYW1JDXM-149" value="" style="shape=partialRectangle;connectable=0;fillColor=none;top=0;left=0;bottom=0;right=0;editable=1;overflow=hidden;whiteSpace=wrap;html=1;" vertex="1" parent="gUEw2l19a9GKQYW1JDXM-148">
          <mxGeometry width="30" height="30" as="geometry">
            <mxRectangle width="30" height="30" as="alternateBounds" />
          </mxGeometry>
        </mxCell>
        <mxCell id="gUEw2l19a9GKQYW1JDXM-150" value="nombre" style="shape=partialRectangle;connectable=0;fillColor=none;top=0;left=0;bottom=0;right=0;align=left;spacingLeft=6;overflow=hidden;whiteSpace=wrap;html=1;" vertex="1" parent="gUEw2l19a9GKQYW1JDXM-148">
          <mxGeometry x="30" width="150" height="30" as="geometry">
            <mxRectangle width="150" height="30" as="alternateBounds" />
          </mxGeometry>
        </mxCell>
        <mxCell id="gUEw2l19a9GKQYW1JDXM-151" value="" style="shape=tableRow;horizontal=0;startSize=0;swimlaneHead=0;swimlaneBody=0;fillColor=none;collapsible=0;dropTarget=0;points=[[0,0.5],[1,0.5]];portConstraint=eastwest;top=0;left=0;right=0;bottom=0;" vertex="1" parent="gUEw2l19a9GKQYW1JDXM-144">
          <mxGeometry y="90" width="180" height="30" as="geometry" />
        </mxCell>
        <mxCell id="gUEw2l19a9GKQYW1JDXM-152" value="" style="shape=partialRectangle;connectable=0;fillColor=none;top=0;left=0;bottom=0;right=0;editable=1;overflow=hidden;whiteSpace=wrap;html=1;" vertex="1" parent="gUEw2l19a9GKQYW1JDXM-151">
          <mxGeometry width="30" height="30" as="geometry">
            <mxRectangle width="30" height="30" as="alternateBounds" />
          </mxGeometry>
        </mxCell>
        <mxCell id="gUEw2l19a9GKQYW1JDXM-153" value="teléfono" style="shape=partialRectangle;connectable=0;fillColor=none;top=0;left=0;bottom=0;right=0;align=left;spacingLeft=6;overflow=hidden;whiteSpace=wrap;html=1;" vertex="1" parent="gUEw2l19a9GKQYW1JDXM-151">
          <mxGeometry x="30" width="150" height="30" as="geometry">
            <mxRectangle width="150" height="30" as="alternateBounds" />
          </mxGeometry>
        </mxCell>
        <mxCell id="gUEw2l19a9GKQYW1JDXM-154" value="" style="shape=tableRow;horizontal=0;startSize=0;swimlaneHead=0;swimlaneBody=0;fillColor=none;collapsible=0;dropTarget=0;points=[[0,0.5],[1,0.5]];portConstraint=eastwest;top=0;left=0;right=0;bottom=0;" vertex="1" parent="gUEw2l19a9GKQYW1JDXM-144">
          <mxGeometry y="120" width="180" height="30" as="geometry" />
        </mxCell>
        <mxCell id="gUEw2l19a9GKQYW1JDXM-155" value="" style="shape=partialRectangle;connectable=0;fillColor=none;top=0;left=0;bottom=0;right=0;editable=1;overflow=hidden;whiteSpace=wrap;html=1;" vertex="1" parent="gUEw2l19a9GKQYW1JDXM-154">
          <mxGeometry width="30" height="30" as="geometry">
            <mxRectangle width="30" height="30" as="alternateBounds" />
          </mxGeometry>
        </mxCell>
        <mxCell id="gUEw2l19a9GKQYW1JDXM-156" value="nacimiento" style="shape=partialRectangle;connectable=0;fillColor=none;top=0;left=0;bottom=0;right=0;align=left;spacingLeft=6;overflow=hidden;whiteSpace=wrap;html=1;" vertex="1" parent="gUEw2l19a9GKQYW1JDXM-154">
          <mxGeometry x="30" width="150" height="30" as="geometry">
            <mxRectangle width="150" height="30" as="alternateBounds" />
          </mxGeometry>
        </mxCell>
        <mxCell id="gUEw2l19a9GKQYW1JDXM-180" style="shape=tableRow;horizontal=0;startSize=0;swimlaneHead=0;swimlaneBody=0;fillColor=none;collapsible=0;dropTarget=0;points=[[0,0.5],[1,0.5]];portConstraint=eastwest;top=0;left=0;right=0;bottom=0;" vertex="1" parent="gUEw2l19a9GKQYW1JDXM-144">
          <mxGeometry y="150" width="180" height="30" as="geometry" />
        </mxCell>
        <mxCell id="gUEw2l19a9GKQYW1JDXM-181" style="shape=partialRectangle;connectable=0;fillColor=none;top=0;left=0;bottom=0;right=0;editable=1;overflow=hidden;whiteSpace=wrap;html=1;" vertex="1" parent="gUEw2l19a9GKQYW1JDXM-180">
          <mxGeometry width="30" height="30" as="geometry">
            <mxRectangle width="30" height="30" as="alternateBounds" />
          </mxGeometry>
        </mxCell>
        <mxCell id="gUEw2l19a9GKQYW1JDXM-182" value="email" style="shape=partialRectangle;connectable=0;fillColor=none;top=0;left=0;bottom=0;right=0;align=left;spacingLeft=6;overflow=hidden;whiteSpace=wrap;html=1;" vertex="1" parent="gUEw2l19a9GKQYW1JDXM-180">
          <mxGeometry x="30" width="150" height="30" as="geometry">
            <mxRectangle width="150" height="30" as="alternateBounds" />
          </mxGeometry>
        </mxCell>
        <mxCell id="gUEw2l19a9GKQYW1JDXM-186" value="Cita" style="shape=table;startSize=30;container=1;collapsible=1;childLayout=tableLayout;fixedRows=1;rowLines=0;fontStyle=1;align=center;resizeLast=1;html=1;" vertex="1" parent="1">
          <mxGeometry x="335" y="560" width="180" height="240" as="geometry" />
        </mxCell>
        <mxCell id="gUEw2l19a9GKQYW1JDXM-187" value="" style="shape=tableRow;horizontal=0;startSize=0;swimlaneHead=0;swimlaneBody=0;fillColor=none;collapsible=0;dropTarget=0;points=[[0,0.5],[1,0.5]];portConstraint=eastwest;top=0;left=0;right=0;bottom=1;" vertex="1" parent="gUEw2l19a9GKQYW1JDXM-186">
          <mxGeometry y="30" width="180" height="30" as="geometry" />
        </mxCell>
        <mxCell id="gUEw2l19a9GKQYW1JDXM-188" value="PK" style="shape=partialRectangle;connectable=0;fillColor=none;top=0;left=0;bottom=0;right=0;fontStyle=1;overflow=hidden;whiteSpace=wrap;html=1;" vertex="1" parent="gUEw2l19a9GKQYW1JDXM-187">
          <mxGeometry width="30" height="30" as="geometry">
            <mxRectangle width="30" height="30" as="alternateBounds" />
          </mxGeometry>
        </mxCell>
        <mxCell id="gUEw2l19a9GKQYW1JDXM-189" value="cita_ID" style="shape=partialRectangle;connectable=0;fillColor=none;top=0;left=0;bottom=0;right=0;align=left;spacingLeft=6;fontStyle=5;overflow=hidden;whiteSpace=wrap;html=1;" vertex="1" parent="gUEw2l19a9GKQYW1JDXM-187">
          <mxGeometry x="30" width="150" height="30" as="geometry">
            <mxRectangle width="150" height="30" as="alternateBounds" />
          </mxGeometry>
        </mxCell>
        <mxCell id="gUEw2l19a9GKQYW1JDXM-190" value="" style="shape=tableRow;horizontal=0;startSize=0;swimlaneHead=0;swimlaneBody=0;fillColor=none;collapsible=0;dropTarget=0;points=[[0,0.5],[1,0.5]];portConstraint=eastwest;top=0;left=0;right=0;bottom=0;" vertex="1" parent="gUEw2l19a9GKQYW1JDXM-186">
          <mxGeometry y="60" width="180" height="30" as="geometry" />
        </mxCell>
        <mxCell id="gUEw2l19a9GKQYW1JDXM-191" value="FK" style="shape=partialRectangle;connectable=0;fillColor=none;top=0;left=0;bottom=0;right=0;editable=1;overflow=hidden;whiteSpace=wrap;html=1;" vertex="1" parent="gUEw2l19a9GKQYW1JDXM-190">
          <mxGeometry width="30" height="30" as="geometry">
            <mxRectangle width="30" height="30" as="alternateBounds" />
          </mxGeometry>
        </mxCell>
        <mxCell id="gUEw2l19a9GKQYW1JDXM-192" value="paciente_ID" style="shape=partialRectangle;connectable=0;fillColor=none;top=0;left=0;bottom=0;right=0;align=left;spacingLeft=6;overflow=hidden;whiteSpace=wrap;html=1;" vertex="1" parent="gUEw2l19a9GKQYW1JDXM-190">
          <mxGeometry x="30" width="150" height="30" as="geometry">
            <mxRectangle width="150" height="30" as="alternateBounds" />
          </mxGeometry>
        </mxCell>
        <mxCell id="gUEw2l19a9GKQYW1JDXM-193" value="" style="shape=tableRow;horizontal=0;startSize=0;swimlaneHead=0;swimlaneBody=0;fillColor=none;collapsible=0;dropTarget=0;points=[[0,0.5],[1,0.5]];portConstraint=eastwest;top=0;left=0;right=0;bottom=0;" vertex="1" parent="gUEw2l19a9GKQYW1JDXM-186">
          <mxGeometry y="90" width="180" height="30" as="geometry" />
        </mxCell>
        <mxCell id="gUEw2l19a9GKQYW1JDXM-194" value="FK" style="shape=partialRectangle;connectable=0;fillColor=none;top=0;left=0;bottom=0;right=0;editable=1;overflow=hidden;whiteSpace=wrap;html=1;" vertex="1" parent="gUEw2l19a9GKQYW1JDXM-193">
          <mxGeometry width="30" height="30" as="geometry">
            <mxRectangle width="30" height="30" as="alternateBounds" />
          </mxGeometry>
        </mxCell>
        <mxCell id="gUEw2l19a9GKQYW1JDXM-195" value="doctor_ID" style="shape=partialRectangle;connectable=0;fillColor=none;top=0;left=0;bottom=0;right=0;align=left;spacingLeft=6;overflow=hidden;whiteSpace=wrap;html=1;" vertex="1" parent="gUEw2l19a9GKQYW1JDXM-193">
          <mxGeometry x="30" width="150" height="30" as="geometry">
            <mxRectangle width="150" height="30" as="alternateBounds" />
          </mxGeometry>
        </mxCell>
        <mxCell id="gUEw2l19a9GKQYW1JDXM-196" value="" style="shape=tableRow;horizontal=0;startSize=0;swimlaneHead=0;swimlaneBody=0;fillColor=none;collapsible=0;dropTarget=0;points=[[0,0.5],[1,0.5]];portConstraint=eastwest;top=0;left=0;right=0;bottom=0;" vertex="1" parent="gUEw2l19a9GKQYW1JDXM-186">
          <mxGeometry y="120" width="180" height="30" as="geometry" />
        </mxCell>
        <mxCell id="gUEw2l19a9GKQYW1JDXM-197" value="" style="shape=partialRectangle;connectable=0;fillColor=none;top=0;left=0;bottom=0;right=0;editable=1;overflow=hidden;whiteSpace=wrap;html=1;" vertex="1" parent="gUEw2l19a9GKQYW1JDXM-196">
          <mxGeometry width="30" height="30" as="geometry">
            <mxRectangle width="30" height="30" as="alternateBounds" />
          </mxGeometry>
        </mxCell>
        <mxCell id="gUEw2l19a9GKQYW1JDXM-198" value="fecha" style="shape=partialRectangle;connectable=0;fillColor=none;top=0;left=0;bottom=0;right=0;align=left;spacingLeft=6;overflow=hidden;whiteSpace=wrap;html=1;" vertex="1" parent="gUEw2l19a9GKQYW1JDXM-196">
          <mxGeometry x="30" width="150" height="30" as="geometry">
            <mxRectangle width="150" height="30" as="alternateBounds" />
          </mxGeometry>
        </mxCell>
        <mxCell id="gUEw2l19a9GKQYW1JDXM-199" style="shape=tableRow;horizontal=0;startSize=0;swimlaneHead=0;swimlaneBody=0;fillColor=none;collapsible=0;dropTarget=0;points=[[0,0.5],[1,0.5]];portConstraint=eastwest;top=0;left=0;right=0;bottom=0;" vertex="1" parent="gUEw2l19a9GKQYW1JDXM-186">
          <mxGeometry y="150" width="180" height="30" as="geometry" />
        </mxCell>
        <mxCell id="gUEw2l19a9GKQYW1JDXM-200" style="shape=partialRectangle;connectable=0;fillColor=none;top=0;left=0;bottom=0;right=0;editable=1;overflow=hidden;whiteSpace=wrap;html=1;" vertex="1" parent="gUEw2l19a9GKQYW1JDXM-199">
          <mxGeometry width="30" height="30" as="geometry">
            <mxRectangle width="30" height="30" as="alternateBounds" />
          </mxGeometry>
        </mxCell>
        <mxCell id="gUEw2l19a9GKQYW1JDXM-201" value="hora" style="shape=partialRectangle;connectable=0;fillColor=none;top=0;left=0;bottom=0;right=0;align=left;spacingLeft=6;overflow=hidden;whiteSpace=wrap;html=1;" vertex="1" parent="gUEw2l19a9GKQYW1JDXM-199">
          <mxGeometry x="30" width="150" height="30" as="geometry">
            <mxRectangle width="150" height="30" as="alternateBounds" />
          </mxGeometry>
        </mxCell>
        <mxCell id="gUEw2l19a9GKQYW1JDXM-216" style="shape=tableRow;horizontal=0;startSize=0;swimlaneHead=0;swimlaneBody=0;fillColor=none;collapsible=0;dropTarget=0;points=[[0,0.5],[1,0.5]];portConstraint=eastwest;top=0;left=0;right=0;bottom=0;" vertex="1" parent="gUEw2l19a9GKQYW1JDXM-186">
          <mxGeometry y="180" width="180" height="30" as="geometry" />
        </mxCell>
        <mxCell id="gUEw2l19a9GKQYW1JDXM-217" style="shape=partialRectangle;connectable=0;fillColor=none;top=0;left=0;bottom=0;right=0;editable=1;overflow=hidden;whiteSpace=wrap;html=1;" vertex="1" parent="gUEw2l19a9GKQYW1JDXM-216">
          <mxGeometry width="30" height="30" as="geometry">
            <mxRectangle width="30" height="30" as="alternateBounds" />
          </mxGeometry>
        </mxCell>
        <mxCell id="gUEw2l19a9GKQYW1JDXM-218" value="estado" style="shape=partialRectangle;connectable=0;fillColor=none;top=0;left=0;bottom=0;right=0;align=left;spacingLeft=6;overflow=hidden;whiteSpace=wrap;html=1;" vertex="1" parent="gUEw2l19a9GKQYW1JDXM-216">
          <mxGeometry x="30" width="150" height="30" as="geometry">
            <mxRectangle width="150" height="30" as="alternateBounds" />
          </mxGeometry>
        </mxCell>
        <mxCell id="gUEw2l19a9GKQYW1JDXM-202" style="shape=tableRow;horizontal=0;startSize=0;swimlaneHead=0;swimlaneBody=0;fillColor=none;collapsible=0;dropTarget=0;points=[[0,0.5],[1,0.5]];portConstraint=eastwest;top=0;left=0;right=0;bottom=0;" vertex="1" parent="gUEw2l19a9GKQYW1JDXM-186">
          <mxGeometry y="210" width="180" height="30" as="geometry" />
        </mxCell>
        <mxCell id="gUEw2l19a9GKQYW1JDXM-203" style="shape=partialRectangle;connectable=0;fillColor=none;top=0;left=0;bottom=0;right=0;editable=1;overflow=hidden;whiteSpace=wrap;html=1;" vertex="1" parent="gUEw2l19a9GKQYW1JDXM-202">
          <mxGeometry width="30" height="30" as="geometry">
            <mxRectangle width="30" height="30" as="alternateBounds" />
          </mxGeometry>
        </mxCell>
        <mxCell id="gUEw2l19a9GKQYW1JDXM-204" value="importe" style="shape=partialRectangle;connectable=0;fillColor=none;top=0;left=0;bottom=0;right=0;align=left;spacingLeft=6;overflow=hidden;whiteSpace=wrap;html=1;" vertex="1" parent="gUEw2l19a9GKQYW1JDXM-202">
          <mxGeometry x="30" width="150" height="30" as="geometry">
            <mxRectangle width="150" height="30" as="alternateBounds" />
          </mxGeometry>
        </mxCell>
        <mxCell id="gUEw2l19a9GKQYW1JDXM-219" value="Tratamiento" style="shape=table;startSize=30;container=1;collapsible=1;childLayout=tableLayout;fixedRows=1;rowLines=0;fontStyle=1;align=center;resizeLast=1;html=1;" vertex="1" parent="1">
          <mxGeometry x="40" y="560" width="180" height="150" as="geometry" />
        </mxCell>
        <mxCell id="gUEw2l19a9GKQYW1JDXM-220" value="" style="shape=tableRow;horizontal=0;startSize=0;swimlaneHead=0;swimlaneBody=0;fillColor=none;collapsible=0;dropTarget=0;points=[[0,0.5],[1,0.5]];portConstraint=eastwest;top=0;left=0;right=0;bottom=1;" vertex="1" parent="gUEw2l19a9GKQYW1JDXM-219">
          <mxGeometry y="30" width="180" height="30" as="geometry" />
        </mxCell>
        <mxCell id="gUEw2l19a9GKQYW1JDXM-221" value="PK" style="shape=partialRectangle;connectable=0;fillColor=none;top=0;left=0;bottom=0;right=0;fontStyle=1;overflow=hidden;whiteSpace=wrap;html=1;" vertex="1" parent="gUEw2l19a9GKQYW1JDXM-220">
          <mxGeometry width="30" height="30" as="geometry">
            <mxRectangle width="30" height="30" as="alternateBounds" />
          </mxGeometry>
        </mxCell>
        <mxCell id="gUEw2l19a9GKQYW1JDXM-222" value="tratamiento_ID" style="shape=partialRectangle;connectable=0;fillColor=none;top=0;left=0;bottom=0;right=0;align=left;spacingLeft=6;fontStyle=5;overflow=hidden;whiteSpace=wrap;html=1;" vertex="1" parent="gUEw2l19a9GKQYW1JDXM-220">
          <mxGeometry x="30" width="150" height="30" as="geometry">
            <mxRectangle width="150" height="30" as="alternateBounds" />
          </mxGeometry>
        </mxCell>
        <mxCell id="gUEw2l19a9GKQYW1JDXM-223" value="" style="shape=tableRow;horizontal=0;startSize=0;swimlaneHead=0;swimlaneBody=0;fillColor=none;collapsible=0;dropTarget=0;points=[[0,0.5],[1,0.5]];portConstraint=eastwest;top=0;left=0;right=0;bottom=0;" vertex="1" parent="gUEw2l19a9GKQYW1JDXM-219">
          <mxGeometry y="60" width="180" height="30" as="geometry" />
        </mxCell>
        <mxCell id="gUEw2l19a9GKQYW1JDXM-224" value="Fk" style="shape=partialRectangle;connectable=0;fillColor=none;top=0;left=0;bottom=0;right=0;editable=1;overflow=hidden;whiteSpace=wrap;html=1;" vertex="1" parent="gUEw2l19a9GKQYW1JDXM-223">
          <mxGeometry width="30" height="30" as="geometry">
            <mxRectangle width="30" height="30" as="alternateBounds" />
          </mxGeometry>
        </mxCell>
        <mxCell id="gUEw2l19a9GKQYW1JDXM-225" value="cita_ID" style="shape=partialRectangle;connectable=0;fillColor=none;top=0;left=0;bottom=0;right=0;align=left;spacingLeft=6;overflow=hidden;whiteSpace=wrap;html=1;" vertex="1" parent="gUEw2l19a9GKQYW1JDXM-223">
          <mxGeometry x="30" width="150" height="30" as="geometry">
            <mxRectangle width="150" height="30" as="alternateBounds" />
          </mxGeometry>
        </mxCell>
        <mxCell id="gUEw2l19a9GKQYW1JDXM-226" value="" style="shape=tableRow;horizontal=0;startSize=0;swimlaneHead=0;swimlaneBody=0;fillColor=none;collapsible=0;dropTarget=0;points=[[0,0.5],[1,0.5]];portConstraint=eastwest;top=0;left=0;right=0;bottom=0;" vertex="1" parent="gUEw2l19a9GKQYW1JDXM-219">
          <mxGeometry y="90" width="180" height="30" as="geometry" />
        </mxCell>
        <mxCell id="gUEw2l19a9GKQYW1JDXM-227" value="" style="shape=partialRectangle;connectable=0;fillColor=none;top=0;left=0;bottom=0;right=0;editable=1;overflow=hidden;whiteSpace=wrap;html=1;" vertex="1" parent="gUEw2l19a9GKQYW1JDXM-226">
          <mxGeometry width="30" height="30" as="geometry">
            <mxRectangle width="30" height="30" as="alternateBounds" />
          </mxGeometry>
        </mxCell>
        <mxCell id="gUEw2l19a9GKQYW1JDXM-228" value="descipción" style="shape=partialRectangle;connectable=0;fillColor=none;top=0;left=0;bottom=0;right=0;align=left;spacingLeft=6;overflow=hidden;whiteSpace=wrap;html=1;" vertex="1" parent="gUEw2l19a9GKQYW1JDXM-226">
          <mxGeometry x="30" width="150" height="30" as="geometry">
            <mxRectangle width="150" height="30" as="alternateBounds" />
          </mxGeometry>
        </mxCell>
        <mxCell id="gUEw2l19a9GKQYW1JDXM-229" value="" style="shape=tableRow;horizontal=0;startSize=0;swimlaneHead=0;swimlaneBody=0;fillColor=none;collapsible=0;dropTarget=0;points=[[0,0.5],[1,0.5]];portConstraint=eastwest;top=0;left=0;right=0;bottom=0;" vertex="1" parent="gUEw2l19a9GKQYW1JDXM-219">
          <mxGeometry y="120" width="180" height="30" as="geometry" />
        </mxCell>
        <mxCell id="gUEw2l19a9GKQYW1JDXM-230" value="" style="shape=partialRectangle;connectable=0;fillColor=none;top=0;left=0;bottom=0;right=0;editable=1;overflow=hidden;whiteSpace=wrap;html=1;" vertex="1" parent="gUEw2l19a9GKQYW1JDXM-229">
          <mxGeometry width="30" height="30" as="geometry">
            <mxRectangle width="30" height="30" as="alternateBounds" />
          </mxGeometry>
        </mxCell>
        <mxCell id="gUEw2l19a9GKQYW1JDXM-231" value="precio" style="shape=partialRectangle;connectable=0;fillColor=none;top=0;left=0;bottom=0;right=0;align=left;spacingLeft=6;overflow=hidden;whiteSpace=wrap;html=1;" vertex="1" parent="gUEw2l19a9GKQYW1JDXM-229">
          <mxGeometry x="30" width="150" height="30" as="geometry">
            <mxRectangle width="150" height="30" as="alternateBounds" />
          </mxGeometry>
        </mxCell>
        <mxCell id="gUEw2l19a9GKQYW1JDXM-234" style="edgeStyle=orthogonalEdgeStyle;rounded=0;orthogonalLoop=1;jettySize=auto;html=1;" edge="1" parent="1" source="gUEw2l19a9GKQYW1JDXM-232" target="gUEw2l19a9GKQYW1JDXM-73">
          <mxGeometry relative="1" as="geometry" />
        </mxCell>
        <mxCell id="gUEw2l19a9GKQYW1JDXM-232" value="ID" style="ellipse;whiteSpace=wrap;html=1;align=center;fontStyle=4;" vertex="1" parent="1">
          <mxGeometry x="140" y="420" width="100" height="40" as="geometry" />
        </mxCell>
        <mxCell id="gUEw2l19a9GKQYW1JDXM-239" value="" style="edgeStyle=entityRelationEdgeStyle;fontSize=12;html=1;endArrow=ERoneToMany;startArrow=ERmandOne;rounded=0;" edge="1" parent="1" source="gUEw2l19a9GKQYW1JDXM-113" target="gUEw2l19a9GKQYW1JDXM-127">
          <mxGeometry width="100" height="100" relative="1" as="geometry">
            <mxPoint x="230" y="960" as="sourcePoint" />
            <mxPoint x="330" y="860" as="targetPoint" />
            <Array as="points">
              <mxPoint x="130" y="1090" />
            </Array>
          </mxGeometry>
        </mxCell>
        <mxCell id="gUEw2l19a9GKQYW1JDXM-240" value="" style="edgeStyle=entityRelationEdgeStyle;fontSize=12;html=1;endArrow=ERzeroToMany;endFill=1;rounded=0;" edge="1" parent="1" source="gUEw2l19a9GKQYW1JDXM-186" target="gUEw2l19a9GKQYW1JDXM-219">
          <mxGeometry width="100" height="100" relative="1" as="geometry">
            <mxPoint x="170" y="755" as="sourcePoint" />
            <mxPoint x="285" y="800" as="targetPoint" />
          </mxGeometry>
        </mxCell>
        <mxCell id="gUEw2l19a9GKQYW1JDXM-241" value="" style="edgeStyle=entityRelationEdgeStyle;fontSize=12;html=1;endArrow=ERoneToMany;startArrow=ERmandOne;rounded=0;" edge="1" parent="1" source="gUEw2l19a9GKQYW1JDXM-144" target="gUEw2l19a9GKQYW1JDXM-186">
          <mxGeometry width="100" height="100" relative="1" as="geometry">
            <mxPoint x="570" y="885" as="sourcePoint" />
            <mxPoint x="685" y="870" as="targetPoint" />
            <Array as="points">
              <mxPoint x="480" y="1015" />
            </Array>
          </mxGeometry>
        </mxCell>
        <mxCell id="gUEw2l19a9GKQYW1JDXM-242" value="" style="edgeStyle=entityRelationEdgeStyle;fontSize=12;html=1;endArrow=ERoneToMany;startArrow=ERmandOne;rounded=0;" edge="1" parent="1" source="gUEw2l19a9GKQYW1JDXM-127" target="gUEw2l19a9GKQYW1JDXM-186">
          <mxGeometry width="100" height="100" relative="1" as="geometry">
            <mxPoint x="705" y="830" as="sourcePoint" />
            <mxPoint x="590" y="860" as="targetPoint" />
            <Array as="points">
              <mxPoint x="555" y="1195" />
              <mxPoint x="600" y="830" />
              <mxPoint x="420" y="830" />
            </Array>
          </mxGeometry>
        </mxCell>
      </root>
    </mxGraphModel>
  </diagram>
</mxfile>
